<mxfile host="app.diagrams.net" modified="2024-01-12T03:25:43.215Z" agent="Mozilla/5.0 (X11; Linux x86_64) AppleWebKit/537.36 (KHTML, like Gecko) Chrome/120.0.0.0 Safari/537.36" etag="j4cZ5fQf8TrehK5FbqRK" version="22.1.18" type="device">
  <diagram name="Page-1" id="tIagSEPAW1R675wcQhpS">
    <mxGraphModel dx="1826" dy="1246" grid="1" gridSize="10" guides="1" tooltips="1" connect="1" arrows="1" fold="1" page="1" pageScale="1" pageWidth="850" pageHeight="1100" math="0" shadow="0">
      <root>
        <mxCell id="0" />
        <mxCell id="1" parent="0" />
        <mxCell id="BiJdDG_3iQopevjqJcHU-1" value="ΧΡΗΣΤΗΣ" style="rounded=0;whiteSpace=wrap;html=1;" parent="1" vertex="1">
          <mxGeometry x="-310" y="270" width="120" height="60" as="geometry" />
        </mxCell>
        <mxCell id="BiJdDG_3iQopevjqJcHU-2" value="Ανανέωση προγράμματος&lt;br&gt;ραντεβού" style="ellipse;whiteSpace=wrap;html=1;" parent="1" vertex="1">
          <mxGeometry x="-50" y="260" width="120" height="80" as="geometry" />
        </mxCell>
        <mxCell id="BiJdDG_3iQopevjqJcHU-3" value="" style="endArrow=classic;html=1;rounded=0;exitX=1;exitY=0.5;exitDx=0;exitDy=0;entryX=0;entryY=0.5;entryDx=0;entryDy=0;" parent="1" source="BiJdDG_3iQopevjqJcHU-1" target="BiJdDG_3iQopevjqJcHU-2" edge="1">
          <mxGeometry width="50" height="50" relative="1" as="geometry">
            <mxPoint x="170" y="330" as="sourcePoint" />
            <mxPoint x="206" y="322" as="targetPoint" />
          </mxGeometry>
        </mxCell>
        <mxCell id="BiJdDG_3iQopevjqJcHU-4" value="Κρατήσεις" style="edgeLabel;html=1;align=center;verticalAlign=middle;resizable=0;points=[];" parent="BiJdDG_3iQopevjqJcHU-3" vertex="1" connectable="0">
          <mxGeometry x="-0.0208" y="1" relative="1" as="geometry">
            <mxPoint x="-3" as="offset" />
          </mxGeometry>
        </mxCell>
        <mxCell id="BiJdDG_3iQopevjqJcHU-20" value="ΓΙΑΤΡΟΣ" style="rounded=0;whiteSpace=wrap;html=1;" parent="1" vertex="1">
          <mxGeometry x="630" y="290" width="120" height="60" as="geometry" />
        </mxCell>
        <mxCell id="M055XsUctG_Mo3rWEarC-2" value="Κράτηση" style="strokeWidth=2;html=1;shape=mxgraph.flowchart.direct_data;whiteSpace=wrap;" vertex="1" parent="1">
          <mxGeometry x="400" y="100" width="100" height="60" as="geometry" />
        </mxCell>
        <mxCell id="M055XsUctG_Mo3rWEarC-3" value="Έλεγχος διαθεσιμότητας" style="ellipse;whiteSpace=wrap;html=1;" vertex="1" parent="1">
          <mxGeometry x="170" y="440" width="120" height="80" as="geometry" />
        </mxCell>
        <mxCell id="M055XsUctG_Mo3rWEarC-4" value="" style="endArrow=classic;html=1;rounded=0;entryX=0;entryY=0;entryDx=0;entryDy=0;exitX=1;exitY=1;exitDx=0;exitDy=0;" edge="1" parent="1" source="BiJdDG_3iQopevjqJcHU-2" target="M055XsUctG_Mo3rWEarC-3">
          <mxGeometry width="50" height="50" relative="1" as="geometry">
            <mxPoint x="30" y="420" as="sourcePoint" />
            <mxPoint x="80" y="370" as="targetPoint" />
          </mxGeometry>
        </mxCell>
        <mxCell id="M055XsUctG_Mo3rWEarC-5" value="Επιλογή&lt;br&gt;ώρας &amp;amp; μέρας" style="edgeLabel;html=1;align=center;verticalAlign=middle;resizable=0;points=[];" vertex="1" connectable="0" parent="M055XsUctG_Mo3rWEarC-4">
          <mxGeometry x="-0.04" y="1" relative="1" as="geometry">
            <mxPoint as="offset" />
          </mxGeometry>
        </mxCell>
        <mxCell id="M055XsUctG_Mo3rWEarC-6" value="" style="endArrow=classic;html=1;rounded=0;exitX=1;exitY=0;exitDx=0;exitDy=0;entryX=0;entryY=0.5;entryDx=0;entryDy=0;" edge="1" parent="1" source="BiJdDG_3iQopevjqJcHU-2" target="M055XsUctG_Mo3rWEarC-7">
          <mxGeometry width="50" height="50" relative="1" as="geometry">
            <mxPoint x="80" y="230" as="sourcePoint" />
            <mxPoint x="130" y="180" as="targetPoint" />
          </mxGeometry>
        </mxCell>
        <mxCell id="M055XsUctG_Mo3rWEarC-8" value="Ακύρωση&lt;br&gt;κράτησης" style="edgeLabel;html=1;align=center;verticalAlign=middle;resizable=0;points=[];" vertex="1" connectable="0" parent="M055XsUctG_Mo3rWEarC-6">
          <mxGeometry x="0.0411" y="3" relative="1" as="geometry">
            <mxPoint as="offset" />
          </mxGeometry>
        </mxCell>
        <mxCell id="M055XsUctG_Mo3rWEarC-7" value="Διαγραφή&lt;br&gt;κράτησης" style="ellipse;whiteSpace=wrap;html=1;" vertex="1" parent="1">
          <mxGeometry x="170" y="90" width="120" height="80" as="geometry" />
        </mxCell>
        <mxCell id="M055XsUctG_Mo3rWEarC-9" value="" style="endArrow=classic;html=1;rounded=0;entryX=0;entryY=0.5;entryDx=0;entryDy=0;entryPerimeter=0;exitX=1;exitY=0.5;exitDx=0;exitDy=0;" edge="1" parent="1" source="M055XsUctG_Mo3rWEarC-7" target="M055XsUctG_Mo3rWEarC-2">
          <mxGeometry width="50" height="50" relative="1" as="geometry">
            <mxPoint x="290" y="200" as="sourcePoint" />
            <mxPoint x="340" y="150" as="targetPoint" />
          </mxGeometry>
        </mxCell>
        <mxCell id="M055XsUctG_Mo3rWEarC-10" value="" style="endArrow=classic;html=1;rounded=0;exitX=1;exitY=0;exitDx=0;exitDy=0;entryX=0.5;entryY=1;entryDx=0;entryDy=0;" edge="1" parent="1" source="M055XsUctG_Mo3rWEarC-3" target="M055XsUctG_Mo3rWEarC-12">
          <mxGeometry width="50" height="50" relative="1" as="geometry">
            <mxPoint x="280" y="410" as="sourcePoint" />
            <mxPoint x="300" y="330" as="targetPoint" />
          </mxGeometry>
        </mxCell>
        <mxCell id="M055XsUctG_Mo3rWEarC-11" value="Πραγματοποίηση&lt;br&gt;κράτησης" style="edgeLabel;html=1;align=center;verticalAlign=middle;resizable=0;points=[];" vertex="1" connectable="0" parent="M055XsUctG_Mo3rWEarC-10">
          <mxGeometry x="0.0218" y="1" relative="1" as="geometry">
            <mxPoint as="offset" />
          </mxGeometry>
        </mxCell>
        <mxCell id="M055XsUctG_Mo3rWEarC-12" value="Δημιουργία&lt;br&gt;κράτησης" style="ellipse;whiteSpace=wrap;html=1;" vertex="1" parent="1">
          <mxGeometry x="230" y="230" width="120" height="80" as="geometry" />
        </mxCell>
        <mxCell id="M055XsUctG_Mo3rWEarC-13" value="Τροποποίηση&lt;br&gt;κράτησης" style="ellipse;whiteSpace=wrap;html=1;" vertex="1" parent="1">
          <mxGeometry x="390" y="310" width="120" height="80" as="geometry" />
        </mxCell>
        <mxCell id="M055XsUctG_Mo3rWEarC-14" value="" style="endArrow=classic;html=1;rounded=0;entryX=0;entryY=1;entryDx=0;entryDy=0;exitX=1;exitY=0.5;exitDx=0;exitDy=0;" edge="1" parent="1" source="M055XsUctG_Mo3rWEarC-3" target="M055XsUctG_Mo3rWEarC-13">
          <mxGeometry width="50" height="50" relative="1" as="geometry">
            <mxPoint x="280" y="380" as="sourcePoint" />
            <mxPoint x="330" y="330" as="targetPoint" />
          </mxGeometry>
        </mxCell>
        <mxCell id="M055XsUctG_Mo3rWEarC-15" value="Αλλαγή&lt;br&gt;ώρας/μέρας&lt;br&gt;κράτησης" style="edgeLabel;html=1;align=center;verticalAlign=middle;resizable=0;points=[];" vertex="1" connectable="0" parent="M055XsUctG_Mo3rWEarC-14">
          <mxGeometry x="-0.0248" y="-1" relative="1" as="geometry">
            <mxPoint as="offset" />
          </mxGeometry>
        </mxCell>
        <mxCell id="M055XsUctG_Mo3rWEarC-16" value="" style="endArrow=classic;html=1;rounded=0;entryX=0.5;entryY=1;entryDx=0;entryDy=0;entryPerimeter=0;exitX=0.5;exitY=0;exitDx=0;exitDy=0;" edge="1" parent="1" source="M055XsUctG_Mo3rWEarC-13" target="M055XsUctG_Mo3rWEarC-2">
          <mxGeometry width="50" height="50" relative="1" as="geometry">
            <mxPoint x="400" y="320" as="sourcePoint" />
            <mxPoint x="450" y="270" as="targetPoint" />
          </mxGeometry>
        </mxCell>
        <mxCell id="M055XsUctG_Mo3rWEarC-17" value="" style="endArrow=classic;html=1;rounded=0;entryX=0.08;entryY=1;entryDx=0;entryDy=0;entryPerimeter=0;exitX=1;exitY=0;exitDx=0;exitDy=0;" edge="1" parent="1" source="M055XsUctG_Mo3rWEarC-12" target="M055XsUctG_Mo3rWEarC-2">
          <mxGeometry width="50" height="50" relative="1" as="geometry">
            <mxPoint x="290" y="240" as="sourcePoint" />
            <mxPoint x="340" y="190" as="targetPoint" />
          </mxGeometry>
        </mxCell>
        <mxCell id="M055XsUctG_Mo3rWEarC-18" value="" style="curved=1;endArrow=classic;html=1;rounded=0;exitX=0.08;exitY=0;exitDx=0;exitDy=0;exitPerimeter=0;entryX=1;entryY=0;entryDx=0;entryDy=0;" edge="1" parent="1" source="M055XsUctG_Mo3rWEarC-2" target="BiJdDG_3iQopevjqJcHU-1">
          <mxGeometry width="50" height="50" relative="1" as="geometry">
            <mxPoint x="330" y="80" as="sourcePoint" />
            <mxPoint x="380" y="30" as="targetPoint" />
            <Array as="points">
              <mxPoint x="340" y="30" />
              <mxPoint x="170" y="30" />
            </Array>
          </mxGeometry>
        </mxCell>
        <mxCell id="M055XsUctG_Mo3rWEarC-19" value="Ειδοποίηση" style="edgeLabel;html=1;align=center;verticalAlign=middle;resizable=0;points=[];" vertex="1" connectable="0" parent="M055XsUctG_Mo3rWEarC-18">
          <mxGeometry x="-0.0084" y="14" relative="1" as="geometry">
            <mxPoint as="offset" />
          </mxGeometry>
        </mxCell>
        <mxCell id="M055XsUctG_Mo3rWEarC-20" value="" style="strokeWidth=2;html=1;shape=mxgraph.flowchart.database;whiteSpace=wrap;" vertex="1" parent="1">
          <mxGeometry x="200" y="620" width="60" height="60" as="geometry" />
        </mxCell>
        <mxCell id="M055XsUctG_Mo3rWEarC-21" value="Βάση&lt;br&gt;κρατήσεων" style="text;html=1;align=center;verticalAlign=middle;resizable=0;points=[];autosize=1;strokeColor=none;fillColor=none;" vertex="1" parent="1">
          <mxGeometry x="185" y="690" width="90" height="40" as="geometry" />
        </mxCell>
        <mxCell id="M055XsUctG_Mo3rWEarC-22" value="" style="endArrow=classic;html=1;rounded=0;entryX=0.238;entryY=0.012;entryDx=0;entryDy=0;entryPerimeter=0;exitX=0.363;exitY=0.955;exitDx=0;exitDy=0;exitPerimeter=0;" edge="1" parent="1" source="M055XsUctG_Mo3rWEarC-3" target="M055XsUctG_Mo3rWEarC-20">
          <mxGeometry width="50" height="50" relative="1" as="geometry">
            <mxPoint x="120" y="610" as="sourcePoint" />
            <mxPoint x="170" y="560" as="targetPoint" />
          </mxGeometry>
        </mxCell>
        <mxCell id="M055XsUctG_Mo3rWEarC-23" value="" style="endArrow=classic;html=1;rounded=0;entryX=0.646;entryY=0.999;entryDx=0;entryDy=0;entryPerimeter=0;exitX=0.769;exitY=-0.03;exitDx=0;exitDy=0;exitPerimeter=0;" edge="1" parent="1" source="M055XsUctG_Mo3rWEarC-20" target="M055XsUctG_Mo3rWEarC-3">
          <mxGeometry width="50" height="50" relative="1" as="geometry">
            <mxPoint x="220" y="620" as="sourcePoint" />
            <mxPoint x="270" y="570" as="targetPoint" />
          </mxGeometry>
        </mxCell>
        <mxCell id="M055XsUctG_Mo3rWEarC-24" value="Έλεγχος&lt;br&gt;διαθεσιμότητας" style="text;html=1;align=center;verticalAlign=middle;resizable=0;points=[];autosize=1;strokeColor=none;fillColor=none;" vertex="1" parent="1">
          <mxGeometry x="110" y="540" width="110" height="40" as="geometry" />
        </mxCell>
        <mxCell id="M055XsUctG_Mo3rWEarC-25" value="Απάντηση" style="text;html=1;align=center;verticalAlign=middle;resizable=0;points=[];autosize=1;strokeColor=none;fillColor=none;" vertex="1" parent="1">
          <mxGeometry x="240" y="548" width="80" height="30" as="geometry" />
        </mxCell>
        <mxCell id="M055XsUctG_Mo3rWEarC-26" value="" style="curved=1;endArrow=classic;html=1;rounded=0;exitX=0.91;exitY=1;exitDx=0;exitDy=0;exitPerimeter=0;entryX=1;entryY=0.15;entryDx=0;entryDy=0;entryPerimeter=0;" edge="1" parent="1" source="M055XsUctG_Mo3rWEarC-2" target="M055XsUctG_Mo3rWEarC-20">
          <mxGeometry width="50" height="50" relative="1" as="geometry">
            <mxPoint x="500" y="470" as="sourcePoint" />
            <mxPoint x="550" y="420" as="targetPoint" />
            <Array as="points">
              <mxPoint x="580" y="350" />
              <mxPoint x="500" y="500" />
            </Array>
          </mxGeometry>
        </mxCell>
        <mxCell id="M055XsUctG_Mo3rWEarC-27" value="Αποθήκευση/Ενημέρωση" style="edgeLabel;html=1;align=center;verticalAlign=middle;resizable=0;points=[];" vertex="1" connectable="0" parent="M055XsUctG_Mo3rWEarC-26">
          <mxGeometry x="-0.0395" y="-4" relative="1" as="geometry">
            <mxPoint as="offset" />
          </mxGeometry>
        </mxCell>
        <mxCell id="M055XsUctG_Mo3rWEarC-28" value="" style="endArrow=classic;html=1;rounded=0;exitX=1;exitY=0.5;exitDx=0;exitDy=0;exitPerimeter=0;entryX=0;entryY=0.5;entryDx=0;entryDy=0;" edge="1" parent="1" source="M055XsUctG_Mo3rWEarC-2" target="BiJdDG_3iQopevjqJcHU-20">
          <mxGeometry width="50" height="50" relative="1" as="geometry">
            <mxPoint x="420" y="340" as="sourcePoint" />
            <mxPoint x="470" y="290" as="targetPoint" />
          </mxGeometry>
        </mxCell>
        <mxCell id="M055XsUctG_Mo3rWEarC-30" value="Ειδοποίηση" style="edgeLabel;html=1;align=center;verticalAlign=middle;resizable=0;points=[];" vertex="1" connectable="0" parent="M055XsUctG_Mo3rWEarC-28">
          <mxGeometry x="-0.0245" relative="1" as="geometry">
            <mxPoint as="offset" />
          </mxGeometry>
        </mxCell>
        <mxCell id="M055XsUctG_Mo3rWEarC-32" value="Προβολή ραντεβού&lt;br&gt;σε εκκρεμότητα" style="ellipse;whiteSpace=wrap;html=1;" vertex="1" parent="1">
          <mxGeometry x="570" y="530" width="120" height="80" as="geometry" />
        </mxCell>
        <mxCell id="M055XsUctG_Mo3rWEarC-33" value="" style="endArrow=classic;html=1;rounded=0;exitX=0.5;exitY=1;exitDx=0;exitDy=0;entryX=0.5;entryY=0;entryDx=0;entryDy=0;" edge="1" parent="1" source="BiJdDG_3iQopevjqJcHU-20" target="M055XsUctG_Mo3rWEarC-32">
          <mxGeometry width="50" height="50" relative="1" as="geometry">
            <mxPoint x="480" y="610" as="sourcePoint" />
            <mxPoint x="530" y="560" as="targetPoint" />
          </mxGeometry>
        </mxCell>
        <mxCell id="M055XsUctG_Mo3rWEarC-35" value="Είσοδος" style="edgeLabel;html=1;align=center;verticalAlign=middle;resizable=0;points=[];" vertex="1" connectable="0" parent="M055XsUctG_Mo3rWEarC-33">
          <mxGeometry x="-0.0048" y="3" relative="1" as="geometry">
            <mxPoint as="offset" />
          </mxGeometry>
        </mxCell>
        <mxCell id="M055XsUctG_Mo3rWEarC-34" value="" style="endArrow=classic;html=1;rounded=0;entryX=1;entryY=0.5;entryDx=0;entryDy=0;entryPerimeter=0;exitX=0;exitY=0.5;exitDx=0;exitDy=0;" edge="1" parent="1" source="M055XsUctG_Mo3rWEarC-32" target="M055XsUctG_Mo3rWEarC-20">
          <mxGeometry width="50" height="50" relative="1" as="geometry">
            <mxPoint x="460" y="680" as="sourcePoint" />
            <mxPoint x="290" y="710" as="targetPoint" />
          </mxGeometry>
        </mxCell>
        <mxCell id="M055XsUctG_Mo3rWEarC-43" value="Εύρεση κρατήσεων&lt;br style=&quot;border-color: var(--border-color);&quot;&gt;όλων των&lt;br style=&quot;border-color: var(--border-color);&quot;&gt;χρηστών" style="edgeLabel;html=1;align=center;verticalAlign=middle;resizable=0;points=[];" vertex="1" connectable="0" parent="M055XsUctG_Mo3rWEarC-34">
          <mxGeometry x="0.0035" y="-1" relative="1" as="geometry">
            <mxPoint as="offset" />
          </mxGeometry>
        </mxCell>
        <mxCell id="M055XsUctG_Mo3rWEarC-36" value="Προβολή&lt;br&gt;προηγούμενων&lt;br&gt;κρατήσεων" style="ellipse;whiteSpace=wrap;html=1;" vertex="1" parent="1">
          <mxGeometry x="-140" y="498" width="120" height="80" as="geometry" />
        </mxCell>
        <mxCell id="M055XsUctG_Mo3rWEarC-37" value="" style="endArrow=classic;html=1;rounded=0;exitX=0.75;exitY=1;exitDx=0;exitDy=0;entryX=0;entryY=0;entryDx=0;entryDy=0;" edge="1" parent="1" source="BiJdDG_3iQopevjqJcHU-1" target="M055XsUctG_Mo3rWEarC-36">
          <mxGeometry width="50" height="50" relative="1" as="geometry">
            <mxPoint x="-130" y="430" as="sourcePoint" />
            <mxPoint x="-80" y="380" as="targetPoint" />
          </mxGeometry>
        </mxCell>
        <mxCell id="M055XsUctG_Mo3rWEarC-38" value="Προφίλ" style="edgeLabel;html=1;align=center;verticalAlign=middle;resizable=0;points=[];" vertex="1" connectable="0" parent="M055XsUctG_Mo3rWEarC-37">
          <mxGeometry x="0.0083" relative="1" as="geometry">
            <mxPoint as="offset" />
          </mxGeometry>
        </mxCell>
        <mxCell id="M055XsUctG_Mo3rWEarC-39" value="" style="endArrow=classic;html=1;rounded=0;exitX=1;exitY=1;exitDx=0;exitDy=0;entryX=0;entryY=0.5;entryDx=0;entryDy=0;entryPerimeter=0;" edge="1" parent="1" source="M055XsUctG_Mo3rWEarC-36" target="M055XsUctG_Mo3rWEarC-20">
          <mxGeometry width="50" height="50" relative="1" as="geometry">
            <mxPoint y="670" as="sourcePoint" />
            <mxPoint x="50" y="620" as="targetPoint" />
          </mxGeometry>
        </mxCell>
        <mxCell id="M055XsUctG_Mo3rWEarC-41" value="Εύρεση κρατήσεων&lt;br&gt;συγκεκριμένου&lt;br&gt;χρήστη" style="edgeLabel;html=1;align=center;verticalAlign=middle;resizable=0;points=[];" vertex="1" connectable="0" parent="M055XsUctG_Mo3rWEarC-39">
          <mxGeometry x="-0.0128" y="1" relative="1" as="geometry">
            <mxPoint as="offset" />
          </mxGeometry>
        </mxCell>
      </root>
    </mxGraphModel>
  </diagram>
</mxfile>
